<svg width="82" height="82" viewBox="0 0 82 82" fill="none" xmlns="http://www.w3.org/2000/svg">
<circle cx="41" cy="41" r="41" fill="url(#paint0_linear_592_10)"/>
<path d="M19.0804 61C16.8969 61 15.2502 60.4658 14.1494 59.3975C13.0394 58.3292 12.4936 56.7534 12.4936 54.6791V44.8504C12.4936 44.1115 12.3207 43.5684 11.9659 43.2301C11.6111 42.8918 11.138 42.7138 10.5284 42.7138H9V39.2951H10.5284C11.138 39.2951 11.6202 39.126 11.9659 38.7788C12.3116 38.4316 12.4936 37.8974 12.4936 37.1585V27.3298C12.4936 25.2199 13.0485 23.6441 14.1494 22.5847C15.2593 21.5342 16.8969 21 19.0804 21H21V24.3741H19.9083C18.8347 24.3741 18.025 24.659 17.4883 25.2288C16.9515 25.7986 16.6785 26.6265 16.6785 27.7038V37.0605C16.6785 38.0576 16.5512 38.8322 16.2873 39.3931C16.0235 39.9539 15.6414 40.3635 15.1319 40.6305C14.6224 40.8976 13.9583 41.1113 13.1486 41.2537V40.7374C13.9674 40.8531 14.6224 41.049 15.1319 41.3339C15.6414 41.6187 16.0235 42.0372 16.2873 42.598C16.5512 43.1589 16.6785 43.9335 16.6785 44.9306V54.2873C16.6785 55.3735 16.9515 56.1925 17.4883 56.7623C18.025 57.3321 18.8347 57.617 19.9083 57.617H21V60.9911H19.0804V61Z" fill="white"/>
<path d="M61.924 60.9911H60V57.617H61.0486C62.1885 57.617 63.0274 57.3321 63.5654 56.7623C64.1033 56.1925 64.3769 55.3646 64.3769 54.2873V44.9306C64.3769 43.9335 64.5046 43.1589 64.7508 42.598C64.997 42.0461 65.3891 41.6187 65.9088 41.3339C66.4377 41.049 67.0942 40.8531 67.8784 40.7374V41.2537C67.0942 41.1113 66.4377 40.9065 65.9088 40.6305C65.3799 40.3635 64.997 39.945 64.7508 39.3931C64.5046 38.8411 64.3769 38.0576 64.3769 37.0605V27.7038C64.3769 26.6176 64.1033 25.7986 63.5654 25.2288C63.0274 24.659 62.1885 24.3741 61.0486 24.3741H60V21H61.924C64.1125 21 65.772 21.5253 66.8936 22.5847C68.0152 23.6352 68.5805 25.2199 68.5805 27.3298V37.1585C68.5805 37.8974 68.7538 38.4405 69.1094 38.7788C69.465 39.1171 69.9301 39.2951 70.5137 39.2951H72V42.7138H70.5137C69.9301 42.7138 69.465 42.8829 69.1094 43.2301C68.7538 43.5773 68.5805 44.1115 68.5805 44.8504V54.6791C68.5805 56.7534 68.0152 58.3292 66.8936 59.3975C65.772 60.4658 64.1125 61 61.924 61V60.9911Z" fill="white"/>
<path d="M32.0127 45.2596C34.3638 45.2596 36.2697 43.3537 36.2697 41.0026C36.2697 38.6515 34.3638 36.7456 32.0127 36.7456C29.6616 36.7456 27.7557 38.6515 27.7557 41.0026C27.7557 43.3537 29.6616 45.2596 32.0127 45.2596Z" fill="white"/>
<path d="M48.9695 45.2596C51.3206 45.2596 53.2265 43.3537 53.2265 41.0026C53.2265 38.6515 51.3206 36.7456 48.9695 36.7456C46.6184 36.7456 44.7125 38.6515 44.7125 41.0026C44.7125 43.3537 46.6184 45.2596 48.9695 45.2596Z" fill="white"/>
<defs>
<linearGradient id="paint0_linear_592_10" x1="41" y1="0" x2="41" y2="82" gradientUnits="userSpaceOnUse">
<stop stop-color="#095896"/>
<stop offset="0.927083" stop-color="#093D66"/>
</linearGradient>
</defs>
</svg>
